<?xml version="1.0" encoding="utf-8"?>
<!-- Generator: Adobe Illustrator 17.1.0, SVG Export Plug-In . SVG Version: 6.00 Build 0)  -->
<!DOCTYPE svg PUBLIC "-//W3C//DTD SVG 1.1//EN" "http://www.w3.org/Graphics/SVG/1.1/DTD/svg11.dtd">
<svg version="1.1" id="Layer_1" xmlns="http://www.w3.org/2000/svg" xmlns:xlink="http://www.w3.org/1999/xlink" x="0px" y="0px"
	 viewBox="0 0 233.4 479.8" enable-background="new 0 0 233.4 479.8" xml:space="preserve">
<g>
	<path fill="#F5E400" d="M166,288.6c0,1.3,0,5.2,0,6.5h53.6v-62.8c-7.2-10-26.7-27.4-92.7-59c-39.8-18.9-64-31.7-64-62.7
		c0-29,22.9-50.6,55.3-50.6c35.7,0,58,24.3,58,66.1h56.6c0-4,0.7-8.1,0.7-12.1C233.4,44.5,187.6,0,118.2,0C46,0,0.9,45.2,0.9,113.3
		c0,59.3,31.7,83.6,92.3,113.2C137.7,248.8,166,258.3,166,288.6"/>
	<path fill="#F5E400" d="M114.5,329.6c-35.1-0.9-56.8-25.3-56.6-66.8l-57.1-0.3c0,4.1-0.7,8.1-0.7,12.2
		c-0.3,69.6,45.1,114.6,114.5,115.5V329.6z"/>
	<path fill="#F5E400" d="M225.9,363.4c0,19.4-15.7,35.1-35.1,35.1c-19.4,0-35.1-15.7-35.1-35.1c0-19.4,15.7-35.1,35.1-35.1
		C210.2,328.3,225.9,344,225.9,363.4"/>
	<path fill="#F5E400" d="M224.3,473.3h2.4v-13.4h3.1v-2h-3.1V454c0-0.9,0.4-1.5,1.7-1.5c0.5,0,1,0,1.4,0.1v-2.3
		c-0.5-0.1-1.1-0.1-1.8-0.1c-1.9,0-3.7,0.9-3.7,3.4v4.4h-2.9v2h2.9V473.3z M213,473.3h2.4v-13.4h3.1v-2h-3.1V454
		c0-0.9,0.4-1.5,1.7-1.5c0.5,0,1,0,1.4,0.1v-2.3c-0.5-0.1-1.1-0.1-1.8-0.1c-1.9,0-3.7,0.9-3.7,3.4v4.4h-2.9v2h2.9V473.3z
		 M195.7,464.2c0.2-2.1,1.6-4.6,4.8-4.6c2.8,0,4.4,1.8,4.7,4.6H195.7z M204.9,468.6c-0.5,1.3-1.7,3-4.5,3c-2.6,0-4.8-1.8-4.8-5.4
		h12.2v-0.7c0-5.2-3-8-7.4-8c-4.5,0-7.4,3.5-7.4,8.7c0,4.3,2.9,7.6,7.3,7.6c3.5,0,5.8-1.8,7.1-4.8L204.9,468.6z M186.3,473.3h2.4
		v-10.4c0-4.3-3.3-5.3-5.1-5.3c-2.2,0-3.9,0.9-4.9,2.9h-0.1v-10.4h-2.4v23.2h2.4v-8.6c0-3.2,2.1-4.9,4.3-4.9c1.7,0,3.4,1,3.4,4.2
		V473.3z M172.1,462.8c-0.6-3.7-3.4-5.3-6.8-5.3c-4.1,0-7.9,3.1-7.9,8.2c0,4.3,2.7,8.1,7.8,8.1c4.2,0,6.1-2.8,6.9-5.4l-2.6-0.3
		c-0.5,1.8-1.7,3.6-4.3,3.6c-3.7,0-5.3-2.8-5.3-5.9c0-3.7,2.3-6.1,5.4-6.1c2.9,0,3.8,2.3,4.2,3.4L172.1,462.8z M146.5,459.8h2.9v9.8
		c0,3.1,1,3.9,3.1,3.9c0.7,0,1.6,0,2.4-0.1v-2.2c-0.5,0.1-1.1,0.1-1.6,0.1c-1.1,0-1.5-0.6-1.5-2v-9.5h3.1v-2h-3.1v-4.5h-2.4v4.5
		h-2.9V459.8z M139.9,451.9c0,1,0.8,1.8,1.8,1.8c1,0,1.8-0.8,1.8-1.8c0-1-0.8-1.8-1.8-1.8C140.7,450.1,139.9,450.9,139.9,451.9
		 M140.5,473.3h2.4v-15.4h-2.4V473.3z M135.3,456.1c-0.5-3.4-2.2-6.5-7.9-6.5c-4.7,0-7.8,2.9-7.8,6.7c0,3.9,2.6,5.4,7.9,6.5
		c4.1,0.9,5.5,1.7,5.5,4.2c0,2.1-1.6,4.4-5.6,4.4c-3.4,0-5.4-1.4-5.9-4.5h-2.6c0.2,4.3,3.1,6.8,8.4,6.8c6,0,8.5-3.5,8.5-7
		c0-4-2.6-5.5-8.5-6.6c-4.3-0.8-5.2-2.3-5.2-3.8c0-2.2,1.6-4.3,5.2-4.3c3.7,0,5.1,2.3,5.2,4.1H135.3z M103.7,467.9
		c0,2.7-2.6,3.9-4.7,3.9c-2.2,0-3.5-1.2-3.5-2.7c0-2,1.5-2.7,4.2-2.8l4.1-0.2V467.9z M103.7,473.3h2.6c-0.1-0.9-0.2-2.1-0.2-3v-7.7
		c0-3.3-2.2-5.2-6.3-5.2c-3.6,0-6,1.4-6.5,4.9h2.4c0.3-1.7,1.2-2.9,4.1-2.9c3.1,0,3.9,1.6,3.9,3.6v1.2c-1.7,0.1-3.4,0.2-5.1,0.2
		c-4.2,0.2-5.8,1.9-5.8,4.7c0,2.4,1.9,4.6,5.6,4.6c1.8,0,4.1-0.6,5.2-2.5h0.1V473.3z M81.4,459.8h2.9v9.8c0,3.1,1,3.9,3.1,3.9
		c0.7,0,1.6,0,2.4-0.1v-2.2c-0.5,0.1-1,0.1-1.6,0.1c-1.1,0-1.5-0.6-1.5-2v-9.5h3.1v-2h-3.1v-4.5h-2.4v4.5h-2.9V459.8z M67,464.2
		c0.2-2.1,1.6-4.6,4.8-4.6c2.8,0,4.4,1.8,4.7,4.6H67z M76.2,468.6c-0.5,1.3-1.7,3-4.5,3c-2.6,0-4.8-1.8-4.8-5.4h12.2v-0.7
		c0-5.2-3-8-7.4-8c-4.5,0-7.4,3.5-7.4,8.7c0,4.3,2.9,7.6,7.2,7.6c3.6,0,5.8-1.8,7.1-4.8L76.2,468.6z M46.6,473.3h2.6v-8.9h4.4
		c4.6,0,8-2.5,8-7.1c0-4.5-2.8-7.2-7.6-7.2h-7.4V473.3z M49.2,462v-9.6h4.2c3.1,0,5.4,1.4,5.4,4.8c0,3.5-2.6,4.8-5.6,4.8H49.2z
		 M23.5,479.8h2.6l9-21.9h-2.7l-4.8,12.8h-0.1l-4.7-12.8h-2.7l6.3,15.1L23.5,479.8z M3.2,473.3h2.4v-2.7h0.1c0.7,1.2,2,3.1,5.2,3.1
		c4.3,0,7.4-3.3,7.4-8.1c0-5.7-3.9-8-7.1-8c-3.4,0-4.8,1.9-5.5,2.9H5.6v-10.5H3.2V473.3z M15.7,465.7c0,3.2-1.7,5.9-4.9,5.9
		s-5.2-2.6-5.2-5.9c0-4,2.5-5.9,5.1-5.9C13.4,459.8,15.7,461.6,15.7,465.7"/>
</g>
</svg>
