<?xml version="1.0" encoding="utf-8"?>
<!-- Generator: Adobe Illustrator 17.1.0, SVG Export Plug-In . SVG Version: 6.00 Build 0)  -->
<!DOCTYPE svg PUBLIC "-//W3C//DTD SVG 1.1//EN" "http://www.w3.org/Graphics/SVG/1.1/DTD/svg11.dtd">
<svg version="1.1" id="Layer_1" xmlns="http://www.w3.org/2000/svg" xmlns:xlink="http://www.w3.org/1999/xlink" x="0px" y="0px"
	 viewBox="0 0 97.7 97.7" enable-background="new 0 0 97.7 97.7" xml:space="preserve">
<circle fill="#F2E105" cx="48.8" cy="48.8" r="48.8"/>
<rect x="43.2" y="26.3" transform="matrix(0.9225 0.3859 -0.3859 0.9225 20.7081 -15.0059)" fill="#FFFFFF" width="9" height="35.5"/>
<path fill="#FFFFFF" d="M59.8,26.8l-8.3-3.5l1.9-4.6c0.5-1.2,1.9-1.8,3.1-1.3l4,1.7c1.2,0.5,1.7,1.8,1.2,3L59.8,26.8z"/>
<polygon fill="#FFFFFF" points="37,69.8 44,64.6 35.7,61.1 "/>
<path fill="none" stroke="#FFFFFF" stroke-miterlimit="10" d="M41.6,83.8c6.8,0.6,13.8-0.1,20.4-2.1c2.2-0.7,4.5-1.5,6.2-3.1
	c0.3-0.3,0.6-0.6,0.6-0.9c0.2-0.9-1-1.5-1.9-1.7c-12.4-2.7-25.4,1.4-38-0.5c-0.6-0.1-1.4-0.3-1.6-0.9c-0.3-0.9,0.9-1.6,1.8-1.8
	c2-0.5,3.9-1,5.9-1.5"/>
</svg>
