<?xml version="1.0" encoding="utf-8"?>
<!-- Generator: Adobe Illustrator 17.1.0, SVG Export Plug-In . SVG Version: 6.00 Build 0)  -->
<!DOCTYPE svg PUBLIC "-//W3C//DTD SVG 1.1//EN" "http://www.w3.org/Graphics/SVG/1.1/DTD/svg11.dtd">
<svg version="1.1" id="Layer_1" xmlns="http://www.w3.org/2000/svg" xmlns:xlink="http://www.w3.org/1999/xlink" x="0px" y="0px"
	 viewBox="0 0 97.7 97.7" enable-background="new 0 0 97.7 97.7" xml:space="preserve">
<circle fill="#F2E105" cx="48.8" cy="48.8" r="48.8"/>
<ellipse fill="#FFFFFF" cx="70.1" cy="35.4" rx="8" ry="7.8"/>
<path fill="#FFFFFF" d="M77.5,47L77.5,47c-1.1-0.9-2.5-1.4-4.1-1.4h-6.7c-1.6,0-3.1,0.6-4.2,1.5c0,0-2.1,3-5.6,8.5L56,61.2
	c1.5-0.2,3.5-1.2,4.8-1.8l-0.7,2.7c-0.6,8.6,0.9,8,0.9,8h5.8h1.4h5.3H77h4.7C85,51.1,77.5,47,77.5,47z M77.2,68.7
	c1.4-2.3,0.3-11.2,0.6-7.1C78,64.6,78,67.5,77.2,68.7z"/>
<path fill="#FFFFFF" d="M60.7,49.8c0,0-4.2,8.1-10.6,11.1c0,0-2.9,0.2-3,1.1s-4.4,3.1-3,4.6c2.1,2.5,5,1.8,10.5-1.4
	c5.5-3.2,7.5-6.6,7.5-6.6L60.7,49.8z"/>
<ellipse fill="#FFFFFF" cx="27.6" cy="35.4" rx="8" ry="7.8"/>
<path fill="#FFFFFF" d="M16,70.1h4.7h3.6h5.3h1.4h5.8c0,0,1.5,0.6,0.9-8l-0.7-2.7c1.3,0.6,3.3,1.6,4.8,1.8l-0.9-5.6
	c-3.5-5.5-5.6-8.5-5.6-8.5c-1.1-0.9-2.6-1.5-4.2-1.5h-6.7c-1.5,0-2.9,0.5-4.1,1.4l0,0C20.2,47,12.7,51.1,16,70.1z M20.4,61.6
	c0.3-4.2-0.3,2.9,0.1,7.1C20.4,67.2,20.2,64.6,20.4,61.6z"/>
<path fill="#FFFFFF" d="M36.9,49.8c0,0,4.2,8.1,10.6,11.1c0,0,2.9,0.2,3,1.1s4.5,2.3,3.4,4.4c-1.5,2.8-5.3,2-10.8-1.2
	c-5.5-3.2-7.5-6.6-7.5-6.6L36.9,49.8z"/>
<path fill="#FFFFFF" d="M46.3,60.2c0,0,3-0.9,3.7,1.2c0.7,2.2-3.7,1.8-3.7,1.8V60.2z"/>
<path fill="none" stroke="#F2E105" stroke-linecap="round" stroke-miterlimit="10" d="M20.7,71.1c0,0-0.6-6-0.1-9.3"/>
<path fill="none" stroke="#F2E105" stroke-linecap="round" stroke-miterlimit="10" d="M76.4,60.8c0,0,0.6,6,0.1,9.3"/>
<g>
	<path fill="#F2E105" d="M44.4,68.1c-0.1,0-0.2,0-0.3-0.1c-0.8-0.5-1.2-1.5-1.2-2.5c0.1-1.1,0.8-2.1,2-2.7c2-1,3.1-0.4,3.5-0.1
		c0.4,0,0.9-0.1,1.1-0.4c0.3-0.4,0.4-1.6-0.3-2.1c-1.3-0.9,0,0,0.2-0.1c0.2-0.1,0.5-0.1,0.7,0.2c0.1,0.2,0.9,1.5,0.3,2.6
		c-0.4,0.6-1,0.9-2.2,0.9l-0.3,0l-0.1-0.2c0,0-0.6-0.7-2.4,0.2c-0.9,0.4-1.4,1.1-1.4,1.9c0,0.6,0.3,1.3,0.7,1.6
		c0.2,0.1,0.3,0.5,0.1,0.7C44.7,68,44.5,68.1,44.4,68.1z"/>
</g>
<g>
	<path fill="#F2E105" d="M49.1,70.6c-0.2,0-0.6-0.1-0.9-0.7c-0.5-0.9-0.8-2.9,0.2-4.1c1.1-1.3,2.1-1.6,3.2-1.8
		c0.2,0,0.4-0.1,0.6-0.1c1.5-0.3,2.3,0.8,2.5,1.4c0.1,0.3,0,0.5-0.3,0.6c-0.3,0.1-0.5,0.6-0.6,0.3c0-0.1,0.1-1.4-1.5-1.4
		c-0.2,0-0.4,0.1-0.6,0.1c-1.1,0.2-1.8,0.4-2.6,1.4c-0.4,0.5-0.6,1.3-0.4,2.1c0.1,0.6,0.3,1,0.4,1.1c0.2,0,0.4,0.2,0.4,0.4
		C49.7,70.3,49.5,70.6,49.1,70.6C49.2,70.6,49.1,70.6,49.1,70.6z"/>
</g>
</svg>
