<?xml version="1.0" encoding="utf-8"?>
<!-- Generator: Adobe Illustrator 17.1.0, SVG Export Plug-In . SVG Version: 6.00 Build 0)  -->
<!DOCTYPE svg PUBLIC "-//W3C//DTD SVG 1.1//EN" "http://www.w3.org/Graphics/SVG/1.1/DTD/svg11.dtd">
<svg version="1.1" id="Layer_1" xmlns="http://www.w3.org/2000/svg" xmlns:xlink="http://www.w3.org/1999/xlink" x="0px" y="0px"
	 viewBox="0 0 97.7 97.7" enable-background="new 0 0 97.7 97.7" xml:space="preserve">
<g>
	<circle fill="#F2E105" cx="48.8" cy="48.8" r="48.8"/>
	<ellipse fill="#FFFFFF" cx="51.1" cy="30.4" rx="10.4" ry="10.1"/>
	<path fill="#FFFFFF" d="M60.7,45.5L60.7,45.5c-1.5-1.1-3.3-1.8-5.3-1.8h-8.6c-2.1,0-4,0.7-5.4,1.9v-0.1c0,0-5.6,4.7-10.2,11.8
		c0,0-1.5-3.2-1.3-7.6c0.1-3.2,2.3-7.8,1.3-8.1c-2.3-0.6-2.7,1.8-4-1.1c-1.3-2.9-4.9-6.6-6.2-0.7c-0.5,2.3,0.8,6.3,1.9,9.1
		c2.4,5.8,2.7,13.3,5,15.1c2.6,2,7.1,0.8,10.3-0.8V65c-0.8,11.1,1.2,10.3,1.2,10.3h7.4h1.8h6.9h4.6c0.8-4.9-0.2-16.9,0.3-10.9
		c0.5,6-0.3,10.9-0.3,10.9h6.1C70.3,50.7,60.7,45.5,60.7,45.5z"/>
	<path fill="none" stroke="#F2E105" stroke-linecap="round" stroke-miterlimit="10" d="M60.2,63.1c0,0,1.2,8.5-0.7,13.8"/>
</g>
</svg>
