<?xml version="1.0" encoding="utf-8"?>
<!-- Generator: Adobe Illustrator 17.1.0, SVG Export Plug-In . SVG Version: 6.00 Build 0)  -->
<!DOCTYPE svg PUBLIC "-//W3C//DTD SVG 1.1//EN" "http://www.w3.org/Graphics/SVG/1.1/DTD/svg11.dtd">
<svg version="1.1" id="Layer_1" xmlns="http://www.w3.org/2000/svg" xmlns:xlink="http://www.w3.org/1999/xlink" x="0px" y="0px"
	 viewBox="0 0 90.9 186.5" enable-background="new 0 0 90.9 186.5" xml:space="preserve">
<g>
	<path fill="#F2E105" d="M64.7,112.2c0,0.5,0,2,0,2.5h20.8V90.3c-2.8-3.9-10.4-10.6-36-22.9C34,60,24.6,55,24.6,43
		c0-11.3,8.9-19.7,21.5-19.7c13.9,0,22.5,9.4,22.5,25.7h22c0-1.6,0.3-3.1,0.3-4.7C90.9,17.3,73.1,0,46.1,0C18.1,0,0.5,17.6,0.5,44
		c0,23,12.3,32.5,35.9,44C53.7,96.7,64.7,100.4,64.7,112.2"/>
	<path fill="#F2E105" d="M44.7,128.1c-13.7-0.3-22.1-9.8-22-26L0.4,102c0,1.6-0.3,3.2-0.3,4.8c-0.1,27.1,17.5,44.5,44.5,44.9V128.1z
		"/>
	<path fill="#F2E105" d="M88,141.3c0,7.5-6.1,13.7-13.7,13.7c-7.5,0-13.7-6.1-13.7-13.7c0-7.5,6.1-13.7,13.7-13.7
		C81.9,127.6,88,133.7,88,141.3"/>
	<path fill="#F2E105" d="M87.3,184h0.9v-5.2h1.2V178h-1.2v-1.5c0-0.4,0.2-0.6,0.6-0.6c0.2,0,0.4,0,0.6,0V175c-0.2,0-0.4,0-0.7,0
		c-0.7,0-1.4,0.3-1.4,1.3v1.7h-1.1v0.8h1.1V184z M82.9,184h0.9v-5.2h1.2V178h-1.2v-1.5c0-0.4,0.2-0.6,0.6-0.6c0.2,0,0.4,0,0.6,0V175
		c-0.2,0-0.4,0-0.7,0c-0.7,0-1.4,0.3-1.4,1.3v1.7h-1.1v0.8h1.1V184z M76.2,180.4c0.1-0.8,0.6-1.8,1.9-1.8c1.1,0,1.7,0.7,1.8,1.8
		H76.2z M79.8,182.1c-0.2,0.5-0.7,1.2-1.8,1.2c-1,0-1.9-0.7-1.9-2.1h4.7v-0.3c0-2-1.2-3.1-2.9-3.1c-1.8,0-2.9,1.4-2.9,3.4
		c0,1.7,1.1,2.9,2.8,2.9c1.4,0,2.2-0.7,2.8-1.9L79.8,182.1z M72.6,184h0.9v-4c0-1.7-1.3-2.1-2-2.1c-0.9,0-1.5,0.3-1.9,1.1h0v-4h-0.9
		v9h0.9v-3.3c0-1.2,0.8-1.9,1.7-1.9c0.7,0,1.3,0.4,1.3,1.6V184z M67,179.9c-0.2-1.4-1.3-2.1-2.6-2.1c-1.6,0-3.1,1.2-3.1,3.2
		c0,1.7,1.1,3.1,3,3.1c1.6,0,2.4-1.1,2.7-2.1l-1-0.1c-0.2,0.7-0.6,1.4-1.7,1.4c-1.4,0-2.1-1.1-2.1-2.3c0-1.5,0.9-2.4,2.1-2.4
		c1.1,0,1.5,0.9,1.6,1.3L67,179.9z M57.1,178.7h1.1v3.8c0,1.2,0.4,1.5,1.2,1.5c0.3,0,0.6,0,0.9,0v-0.8c-0.2,0-0.4,0-0.6,0
		c-0.4,0-0.6-0.2-0.6-0.8v-3.7h1.2V178h-1.2v-1.8h-0.9v1.8h-1.1V178.7z M54.5,175.6c0,0.4,0.3,0.7,0.7,0.7s0.7-0.3,0.7-0.7
		c0-0.4-0.3-0.7-0.7-0.7S54.5,175.3,54.5,175.6 M54.8,184h0.9v-6h-0.9V184z M52.8,177.3c-0.2-1.3-0.9-2.5-3.1-2.5
		c-1.8,0-3,1.1-3,2.6c0,1.5,1,2.1,3.1,2.5c1.6,0.3,2.1,0.6,2.1,1.6c0,0.8-0.6,1.7-2.2,1.7c-1.3,0-2.1-0.6-2.3-1.8h-1
		c0.1,1.7,1.2,2.7,3.3,2.7c2.3,0,3.3-1.4,3.3-2.7c0-1.6-1-2.1-3.3-2.6c-1.7-0.3-2-0.9-2-1.5c0-0.9,0.6-1.7,2-1.7c1.4,0,2,0.9,2,1.6
		H52.8z M40.5,181.9c0,1-1,1.5-1.8,1.5c-0.9,0-1.4-0.5-1.4-1.1c0-0.8,0.6-1.1,1.6-1.1l1.6-0.1V181.9z M40.5,184h1
		c0-0.3-0.1-0.8-0.1-1.2v-3c0-1.3-0.8-2-2.4-2c-1.4,0-2.3,0.6-2.5,1.9h0.9c0.1-0.7,0.5-1.1,1.6-1.1c1.2,0,1.5,0.6,1.5,1.4v0.5
		c-0.7,0-1.3,0.1-2,0.1c-1.6,0.1-2.2,0.7-2.2,1.8c0,0.9,0.7,1.8,2.2,1.8c0.7,0,1.6-0.2,2-1h0V184z M31.8,178.7h1.1v3.8
		c0,1.2,0.4,1.5,1.2,1.5c0.3,0,0.6,0,0.9,0v-0.8c-0.2,0-0.4,0-0.6,0c-0.4,0-0.6-0.2-0.6-0.8v-3.7h1.2V178h-1.2v-1.8h-0.9v1.8h-1.1
		V178.7z M26.2,180.4c0.1-0.8,0.6-1.8,1.9-1.8c1.1,0,1.7,0.7,1.8,1.8H26.2z M29.8,182.1c-0.2,0.5-0.7,1.2-1.8,1.2
		c-1,0-1.9-0.7-1.9-2.1h4.7v-0.3c0-2-1.2-3.1-2.9-3.1c-1.8,0-2.9,1.4-2.9,3.4c0,1.7,1.1,2.9,2.8,2.9c1.4,0,2.2-0.7,2.8-1.9
		L29.8,182.1z M18.3,184h1v-3.5H21c1.8,0,3.1-1,3.1-2.8c0-1.7-1.1-2.8-3-2.8h-2.9V184z M19.3,179.6v-3.7h1.6c1.2,0,2.1,0.6,2.1,1.9
		c0,1.4-1,1.9-2.2,1.9H19.3z M9.3,186.5h1l3.5-8.5h-1l-1.8,5h0l-1.8-5H8l2.4,5.9L9.3,186.5z M1.4,184h0.9v-1h0
		c0.3,0.5,0.8,1.2,2,1.2c1.7,0,2.9-1.3,2.9-3.2c0-2.2-1.5-3.1-2.8-3.1c-1.3,0-1.9,0.8-2.1,1.1h0v-4.1H1.4V184z M6.3,181
		c0,1.2-0.6,2.3-1.9,2.3s-2-1-2-2.3c0-1.6,1-2.3,2-2.3C5.4,178.7,6.3,179.4,6.3,181"/>
</g>
</svg>
