<?xml version="1.0" encoding="utf-8"?>
<!-- Generator: Adobe Illustrator 17.1.0, SVG Export Plug-In . SVG Version: 6.00 Build 0)  -->
<!DOCTYPE svg PUBLIC "-//W3C//DTD SVG 1.1//EN" "http://www.w3.org/Graphics/SVG/1.1/DTD/svg11.dtd">
<svg version="1.1" id="Layer_1" xmlns="http://www.w3.org/2000/svg" xmlns:xlink="http://www.w3.org/1999/xlink" x="0px" y="0px"
	 viewBox="0 0 87.5 73.1" enable-background="new 0 0 87.5 73.1" xml:space="preserve">
<g>
	<g>
		<rect x="0" fill="#626467" width="87.5" height="73.1"/>
	</g>
	<g>
		<path fill="#F2E105" d="M67.7,23.4H19.8c-0.6,0-1-0.4-1-1s0.4-1,1-1h47.9c0.6,0,1,0.4,1,1S68.2,23.4,67.7,23.4z"/>
	</g>
	<g>
		<path fill="#F2E105" d="M67.7,50.9H19.8c-0.6,0-1-0.4-1-1s0.4-1,1-1h47.9c0.6,0,1,0.4,1,1S68.2,50.9,67.7,50.9z"/>
	</g>
	<g>
		<path fill="#F2E105" d="M67.7,37.1H19.8c-0.6,0-1-0.4-1-1s0.4-1,1-1h47.9c0.6,0,1,0.4,1,1S68.2,37.1,67.7,37.1z"/>
	</g>
</g>
</svg>
