<?xml version="1.0" encoding="utf-8"?>
<!-- Generator: Adobe Illustrator 17.1.0, SVG Export Plug-In . SVG Version: 6.00 Build 0)  -->
<!DOCTYPE svg PUBLIC "-//W3C//DTD SVG 1.1//EN" "http://www.w3.org/Graphics/SVG/1.1/DTD/svg11.dtd">
<svg version="1.1" id="Layer_1" xmlns="http://www.w3.org/2000/svg" xmlns:xlink="http://www.w3.org/1999/xlink" x="0px" y="0px"
	 viewBox="277.4 0 525.8 1080" enable-background="new 277.4 0 525.8 1080" xml:space="preserve">
<g>
	<path fill="#F2E105" d="M651.5,649.7c0,2.9,0,11.6,0,14.5h120.5V522.9c-16.2-22.6-60.2-61.4-208.5-132.6
		c-89.8-42.9-144.2-71.8-144.2-141.3c0-65.4,51.5-114.1,124.5-114.1c80.5,0,130.3,54.4,130.3,148.8h127.4c0-9.3,1.7-18,1.7-27.2
		C803.2,100.2,700.1,0,543.8,0C381.6,0,279.7,101.9,279.7,254.8c0,133.2,71.2,188.2,207.9,254.8C587.8,560,651.5,581.4,651.5,649.7"
		/>
	<path fill="#F2E105" d="M535.7,741.8c-79.3-1.7-128-56.8-127.4-150.6l-129.1-0.6c0,9.3-1.7,18.5-1.7,27.8
		c-0.6,156.9,101.3,257.7,257.7,260V741.8H535.7z"/>
	<path fill="#F2E105" d="M786.4,818.3c0,43.4-35.3,79.3-79.3,79.3c-43.4,0-79.3-35.3-79.3-79.3c0-43.4,35.3-79.3,79.3-79.3
		C751.1,738.9,786.4,774.2,786.4,818.3"/>
	<path fill="#F2E105" d="M779.5,1071.7h6.4v-37.2h8.6v-5.7h-8.6V1018c0-2.9,1.4-4.3,4.3-4.3c1.4,0,2.9,0,4.3,0v-6.4
		c-1.4,0-2.9,0-5,0c-5,0-10,2.1-10,9.3v12.2h-7.9v5.7h7.9V1071.7z M748,1071.7h6.4v-37.2h8.6v-5.7h-8.6V1018c0-2.9,1.4-4.3,4.3-4.3
		c1.4,0,2.9,0,4.3,0v-6.4c-1.4,0-2.9,0-5,0c-5,0-10,2.1-10,9.3v12.2h-7.9v5.7h7.9V1071.7z M700,1045.9c0.7-5.7,4.3-12.9,13.6-12.9
		c7.9,0,12.2,5,12.9,12.9H700z M725.8,1058.1c-1.4,3.6-5,8.6-12.9,8.6c-7.2,0-13.6-5-13.6-15H733v-2.1c0-14.3-8.6-22.2-20.8-22.2
		c-12.9,0-20.8,10-20.8,24.3c0,12.2,7.9,20.8,20,20.8c10,0,15.7-5,20-13.6L725.8,1058.1z M674.3,1071.7h6.4V1043
		c0-12.2-9.3-15-14.3-15c-6.4,0-10.7,2.1-13.6,7.9l0,0v-28.6h-6.4v64.4h6.4v-23.6c0-8.6,5.7-13.6,12.2-13.6c5,0,9.3,2.9,9.3,11.5
		V1071.7z M634.2,1042.3c-1.4-10-9.3-15-18.6-15c-11.5,0-22.2,8.6-22.2,22.9c0,12.2,7.9,22.2,21.5,22.2c11.5,0,17.2-7.9,19.3-15
		l-7.2-0.7c-1.4,5-4.3,10-12.2,10c-10,0-15-7.9-15-16.5c0-10.7,6.4-17.2,15-17.2c7.9,0,10.7,6.4,11.5,9.3L634.2,1042.3z
		 M563.3,1033.7h7.9v27.2c0,8.6,2.9,10.7,8.6,10.7c2.1,0,4.3,0,6.4,0v-5.7c-1.4,0-2.9,0-4.3,0c-2.9,0-4.3-1.4-4.3-5.7v-26.5h8.6v-5
		h-8.6v-12.9h-6.4v12.9h-7.9L563.3,1033.7L563.3,1033.7z M544.7,1011.6c0,2.9,2.1,5,5,5s5-2.1,5-5c0-2.9-2.1-5-5-5
		S544.7,1009.4,544.7,1011.6 M546.9,1071.7h6.4v-42.9h-6.4V1071.7z M532.6,1023.7c-1.4-9.3-6.4-17.9-22.2-17.9
		c-12.9,0-21.5,7.9-21.5,18.6c0,10.7,7.2,15,22.2,17.9c11.5,2.1,15,4.3,15,11.5c0,5.7-4.3,12.2-15.7,12.2c-9.3,0-15-4.3-16.5-12.9
		h-7.2c0.7,12.2,8.6,19.3,23.6,19.3c16.5,0,23.6-10,23.6-19.3c0-11.5-7.2-15-23.6-18.6c-12.2-2.1-14.3-6.4-14.3-10.7
		c0-6.4,4.3-12.2,14.3-12.2s14.3,6.4,14.3,11.5h7.9V1023.7z M444.5,1056.6c0,7.2-7.2,10.7-12.9,10.7c-6.4,0-10-3.6-10-7.9
		c0-5.7,4.3-7.9,11.5-7.9l11.5-0.7L444.5,1056.6L444.5,1056.6z M444.5,1071.7h7.2c0-2.1-0.7-5.7-0.7-8.6v-21.5
		c0-9.3-5.7-14.3-17.2-14.3c-10,0-16.5,4.3-17.9,13.6h6.4c0.7-5,3.6-7.9,11.5-7.9c8.6,0,10.7,4.3,10.7,10v3.6c-5,0-9.3,0.7-14.3,0.7
		c-11.5,0.7-15.7,5-15.7,12.9c0,6.4,5,12.9,15.7,12.9c5,0,11.5-1.4,14.3-7.2l0,0V1071.7z M382.3,1033.7h7.9v27.2
		c0,8.6,2.9,10.7,8.6,10.7c2.1,0,4.3,0,6.4,0v-5.7c-1.4,0-2.9,0-4.3,0c-2.9,0-4.3-1.4-4.3-5.7v-26.5h8.6v-5h-8.6v-12.9h-6.4v12.9
		h-7.9V1033.7L382.3,1033.7z M342.2,1045.9c0.7-5.7,4.3-12.9,13.6-12.9c7.9,0,12.2,5,12.9,12.9H342.2z M367.9,1058.1
		c-1.4,3.6-5,8.6-12.9,8.6c-7.2,0-13.6-5-13.6-15h33.6v-2.1c0-14.3-8.6-22.2-20.8-22.2c-12.9,0-20.8,10-20.8,24.3
		c0,12.2,7.9,20.8,20,20.8c10,0,15.7-5,20-13.6L367.9,1058.1z M285.6,1071.7h7.2v-25.1H305c12.9,0,22.2-7.2,22.2-20
		c0-12.2-7.9-20-21.5-20h-20.8v65.1H285.6z M292.8,1040.2v-26.5h11.5c8.6,0,15,4.3,15,13.6c0,10-7.2,13.6-15.7,13.6h-10.7V1040.2z"
		/>
</g>
</svg>
