<?xml version="1.0" encoding="UTF-8"?>
<svg width="91px" height="155px" viewBox="0 0 91 155" version="1.1" xmlns="http://www.w3.org/2000/svg" xmlns:xlink="http://www.w3.org/1999/xlink">
  <!-- Generator: Sketch 56.3 (81716) - https://sketch.com -->
  <title>logo</title>
  <desc>Created with Sketch.</desc>
  <g id="Page-1" stroke="none" stroke-width="1" fill="none" fill-rule="evenodd">
    <g id="logo" fill="#F0E200">
      <path
        d="M64.7,112.2 C64.7,112.7 64.7,114.2 64.7,114.7 L85.5,114.7 L85.5,90.3 C82.7,86.4 75.1,79.7 49.5,67.4 C34,60 24.6,55 24.6,43 C24.6,31.7 33.5,23.3 46.1,23.3 C60,23.3 68.6,32.7 68.6,49 L90.6,49 C90.6,47.4 90.9,45.9 90.9,44.3 C90.9,17.3 73.1,0 46.1,0 C18.1,0 0.5,17.6 0.5,44 C0.5,67 12.8,76.5 36.4,88 C53.7,96.7 64.7,100.4 64.7,112.2"
        id="Path"></path>
      <path d="M44.7,128.1 C31,127.8 22.6,118.3 22.7,102.1 L0.4,102 C0.4,103.6 0.0995760839,105.2 0.0995760839,106.8 C-3.05311332e-16,133.9 17.6,151.3 44.6,151.7 L44.6,128.1 L44.7,128.1 Z" id="Path"></path>
      <path d="M88,141.3 C88,148.8 81.9,155 74.3,155 C66.8,155 60.6,148.9 60.6,141.3 C60.6,133.8 66.7,127.6 74.3,127.6 C81.9,127.6 88,133.7 88,141.3" id="Path"></path>
    </g>
  </g>
</svg>